<mxfile host="app.diagrams.net" modified="2023-07-07T01:49:51.333Z" agent="Mozilla/5.0 (Macintosh; Intel Mac OS X 10_15_7) AppleWebKit/537.36 (KHTML, like Gecko) Chrome/114.0.0.0 Safari/537.36" etag="DheGAMAE_u2WQiK2AmyW" version="21.5.0" type="device">
  <diagram name="Page-1" id="_ho9W0E0r1b8FPW-j-qk">
    <mxGraphModel dx="2284" dy="713" grid="1" gridSize="10" guides="1" tooltips="1" connect="1" arrows="1" fold="1" page="1" pageScale="1" pageWidth="850" pageHeight="1100" math="0" shadow="0">
      <root>
        <mxCell id="0" />
        <mxCell id="1" parent="0" />
        <mxCell id="KIj0XrK9hIxYrgIhCxiL-5" value="AWS Cloud" style="points=[[0,0],[0.25,0],[0.5,0],[0.75,0],[1,0],[1,0.25],[1,0.5],[1,0.75],[1,1],[0.75,1],[0.5,1],[0.25,1],[0,1],[0,0.75],[0,0.5],[0,0.25]];outlineConnect=0;gradientColor=none;html=1;whiteSpace=wrap;fontSize=12;fontStyle=0;container=1;pointerEvents=0;collapsible=0;recursiveResize=0;shape=mxgraph.aws4.group;grIcon=mxgraph.aws4.group_aws_cloud;strokeColor=#232F3E;fillColor=none;verticalAlign=top;align=left;spacingLeft=30;fontColor=#232F3E;dashed=0;" vertex="1" parent="1">
          <mxGeometry x="180" y="90" width="460" height="500" as="geometry" />
        </mxCell>
        <mxCell id="KIj0XrK9hIxYrgIhCxiL-7" value="VPC" style="points=[[0,0],[0.25,0],[0.5,0],[0.75,0],[1,0],[1,0.25],[1,0.5],[1,0.75],[1,1],[0.75,1],[0.5,1],[0.25,1],[0,1],[0,0.75],[0,0.5],[0,0.25]];outlineConnect=0;gradientColor=none;html=1;whiteSpace=wrap;fontSize=12;fontStyle=0;container=1;pointerEvents=0;collapsible=0;recursiveResize=0;shape=mxgraph.aws4.group;grIcon=mxgraph.aws4.group_vpc;strokeColor=#248814;fillColor=none;verticalAlign=top;align=left;spacingLeft=30;fontColor=#AAB7B8;dashed=0;" vertex="1" parent="KIj0XrK9hIxYrgIhCxiL-5">
          <mxGeometry x="20" y="38" width="430" height="462" as="geometry" />
        </mxCell>
        <mxCell id="KIj0XrK9hIxYrgIhCxiL-2" value="Secrets Manager:&lt;br&gt;rds admin password (rotates weekly)" style="sketch=0;points=[[0,0,0],[0.25,0,0],[0.5,0,0],[0.75,0,0],[1,0,0],[0,1,0],[0.25,1,0],[0.5,1,0],[0.75,1,0],[1,1,0],[0,0.25,0],[0,0.5,0],[0,0.75,0],[1,0.25,0],[1,0.5,0],[1,0.75,0]];outlineConnect=0;fontColor=#232F3E;gradientColor=#F54749;gradientDirection=north;fillColor=#C7131F;strokeColor=#ffffff;dashed=0;verticalLabelPosition=bottom;verticalAlign=top;align=center;html=1;fontSize=12;fontStyle=0;aspect=fixed;shape=mxgraph.aws4.resourceIcon;resIcon=mxgraph.aws4.secrets_manager;" vertex="1" parent="KIj0XrK9hIxYrgIhCxiL-7">
          <mxGeometry x="300" y="232" width="58" height="58" as="geometry" />
        </mxCell>
        <mxCell id="KIj0XrK9hIxYrgIhCxiL-23" value="Infrastructure of Developed Product" style="fillColor=none;strokeColor=#5A6C86;dashed=1;verticalAlign=top;fontStyle=0;fontColor=#5A6C86;whiteSpace=wrap;html=1;" vertex="1" parent="KIj0XrK9hIxYrgIhCxiL-7">
          <mxGeometry x="10" y="332" width="410" height="128" as="geometry" />
        </mxCell>
        <mxCell id="KIj0XrK9hIxYrgIhCxiL-10" value="DevOps Admin" style="shape=umlActor;verticalLabelPosition=bottom;verticalAlign=top;html=1;outlineConnect=0;" vertex="1" parent="1">
          <mxGeometry x="-120" y="180" width="30" height="60" as="geometry" />
        </mxCell>
        <mxCell id="KIj0XrK9hIxYrgIhCxiL-13" value="" style="endArrow=classic;html=1;rounded=0;entryX=0;entryY=0.25;entryDx=0;entryDy=0;" edge="1" parent="1" source="KIj0XrK9hIxYrgIhCxiL-10" target="KIj0XrK9hIxYrgIhCxiL-5">
          <mxGeometry width="50" height="50" relative="1" as="geometry">
            <mxPoint x="-200" y="180" as="sourcePoint" />
            <mxPoint x="120" y="230" as="targetPoint" />
          </mxGeometry>
        </mxCell>
        <mxCell id="KIj0XrK9hIxYrgIhCxiL-14" value="&lt;font face=&quot;Courier New&quot;&gt;terraform apply&lt;br&gt;terraform init -migrate-state&lt;/font&gt;" style="edgeLabel;html=1;align=center;verticalAlign=middle;resizable=0;points=[];" vertex="1" connectable="0" parent="KIj0XrK9hIxYrgIhCxiL-13">
          <mxGeometry x="-0.2546" relative="1" as="geometry">
            <mxPoint x="19" y="-2" as="offset" />
          </mxGeometry>
        </mxCell>
        <mxCell id="KIj0XrK9hIxYrgIhCxiL-19" value="Private subnet" style="points=[[0,0],[0.25,0],[0.5,0],[0.75,0],[1,0],[1,0.25],[1,0.5],[1,0.75],[1,1],[0.75,1],[0.5,1],[0.25,1],[0,1],[0,0.75],[0,0.5],[0,0.25]];outlineConnect=0;gradientColor=none;html=1;whiteSpace=wrap;fontSize=12;fontStyle=0;container=1;pointerEvents=0;collapsible=0;recursiveResize=0;shape=mxgraph.aws4.group;grIcon=mxgraph.aws4.group_security_group;grStroke=0;strokeColor=#147EBA;fillColor=#E6F2F8;verticalAlign=top;align=left;spacingLeft=30;fontColor=#147EBA;dashed=0;" vertex="1" parent="1">
          <mxGeometry x="233" y="180" width="390" height="170" as="geometry" />
        </mxCell>
        <mxCell id="KIj0XrK9hIxYrgIhCxiL-20" value="RDS psql:&lt;br&gt;Terraform statemanagement database" style="sketch=0;points=[[0,0,0],[0.25,0,0],[0.5,0,0],[0.75,0,0],[1,0,0],[0,1,0],[0.25,1,0],[0.5,1,0],[0.75,1,0],[1,1,0],[0,0.25,0],[0,0.5,0],[0,0.75,0],[1,0.25,0],[1,0.5,0],[1,0.75,0]];outlineConnect=0;fontColor=#232F3E;gradientColor=#4D72F3;gradientDirection=north;fillColor=#3334B9;strokeColor=#ffffff;dashed=0;verticalLabelPosition=bottom;verticalAlign=top;align=center;html=1;fontSize=12;fontStyle=0;aspect=fixed;shape=mxgraph.aws4.resourceIcon;resIcon=mxgraph.aws4.rds;" vertex="1" parent="KIj0XrK9hIxYrgIhCxiL-19">
          <mxGeometry x="159" y="40" width="78" height="78" as="geometry" />
        </mxCell>
        <mxCell id="KIj0XrK9hIxYrgIhCxiL-17" value="security group - allow TCP/5432" style="fillColor=none;strokeColor=#DD3522;verticalAlign=top;fontStyle=0;fontColor=#DD3522;whiteSpace=wrap;html=1;" vertex="1" parent="KIj0XrK9hIxYrgIhCxiL-19">
          <mxGeometry x="-10" y="-20" width="400" height="190" as="geometry" />
        </mxCell>
        <mxCell id="KIj0XrK9hIxYrgIhCxiL-21" value="Product DevOps" style="shape=umlActor;verticalLabelPosition=bottom;verticalAlign=top;html=1;outlineConnect=0;" vertex="1" parent="1">
          <mxGeometry x="-70" y="390" width="30" height="60" as="geometry" />
        </mxCell>
        <mxCell id="KIj0XrK9hIxYrgIhCxiL-22" style="edgeStyle=orthogonalEdgeStyle;rounded=0;orthogonalLoop=1;jettySize=auto;html=1;exitX=0;exitY=0.5;exitDx=0;exitDy=0;exitPerimeter=0;entryX=0.518;entryY=0.684;entryDx=0;entryDy=0;entryPerimeter=0;" edge="1" parent="1" source="KIj0XrK9hIxYrgIhCxiL-2" target="KIj0XrK9hIxYrgIhCxiL-17">
          <mxGeometry relative="1" as="geometry" />
        </mxCell>
        <mxCell id="KIj0XrK9hIxYrgIhCxiL-26" value="&lt;b&gt;Bootstrap State Management:&lt;/b&gt;&lt;br&gt;DevOps Admin provisions state RDS and migrates ownership of state management from local to RDS." style="text;html=1;strokeColor=none;fillColor=none;align=left;verticalAlign=middle;whiteSpace=wrap;rounded=0;labelBackgroundColor=#D4E1F5;" vertex="1" parent="1">
          <mxGeometry x="-100" y="270" width="210" height="60" as="geometry" />
        </mxCell>
        <mxCell id="KIj0XrK9hIxYrgIhCxiL-27" value="&lt;b&gt;Product Infrastructure:&lt;/b&gt;&lt;br&gt;Product DevOps uses the RDS terraform state management to track changes to state of infrastructure." style="text;html=1;strokeColor=none;fillColor=none;align=left;verticalAlign=middle;whiteSpace=wrap;rounded=0;labelBackgroundColor=#CCCCFF;" vertex="1" parent="1">
          <mxGeometry x="-90" y="480" width="210" height="60" as="geometry" />
        </mxCell>
        <mxCell id="KIj0XrK9hIxYrgIhCxiL-28" value="" style="endArrow=classic;html=1;rounded=0;exitX=0;exitY=0.5;exitDx=0;exitDy=0;exitPerimeter=0;" edge="1" parent="1" source="KIj0XrK9hIxYrgIhCxiL-2" target="KIj0XrK9hIxYrgIhCxiL-21">
          <mxGeometry width="50" height="50" relative="1" as="geometry">
            <mxPoint x="-20" y="310" as="sourcePoint" />
            <mxPoint x="30" y="260" as="targetPoint" />
          </mxGeometry>
        </mxCell>
        <mxCell id="KIj0XrK9hIxYrgIhCxiL-29" value="[1] Fetch latest credentials" style="edgeLabel;html=1;align=center;verticalAlign=middle;resizable=0;points=[];" vertex="1" connectable="0" parent="KIj0XrK9hIxYrgIhCxiL-28">
          <mxGeometry x="0.3425" relative="1" as="geometry">
            <mxPoint as="offset" />
          </mxGeometry>
        </mxCell>
        <mxCell id="KIj0XrK9hIxYrgIhCxiL-30" value="" style="endArrow=classic;html=1;rounded=0;exitX=0;exitY=0.5;exitDx=0;exitDy=0;entryX=1;entryY=0.3333333333333333;entryDx=0;entryDy=0;entryPerimeter=0;" edge="1" parent="1" source="KIj0XrK9hIxYrgIhCxiL-17" target="KIj0XrK9hIxYrgIhCxiL-21">
          <mxGeometry width="50" height="50" relative="1" as="geometry">
            <mxPoint x="-20" y="310" as="sourcePoint" />
            <mxPoint x="30" y="260" as="targetPoint" />
          </mxGeometry>
        </mxCell>
        <mxCell id="KIj0XrK9hIxYrgIhCxiL-31" value="[2] Fetch terraform state - &lt;font face=&quot;Courier New&quot;&gt;terraform plan&lt;/font&gt;" style="edgeLabel;html=1;align=center;verticalAlign=middle;resizable=0;points=[];" vertex="1" connectable="0" parent="KIj0XrK9hIxYrgIhCxiL-30">
          <mxGeometry x="0.4544" y="1" relative="1" as="geometry">
            <mxPoint as="offset" />
          </mxGeometry>
        </mxCell>
        <mxCell id="KIj0XrK9hIxYrgIhCxiL-32" value="" style="endArrow=classic;html=1;rounded=0;entryX=0;entryY=0.5;entryDx=0;entryDy=0;" edge="1" parent="1" source="KIj0XrK9hIxYrgIhCxiL-21" target="KIj0XrK9hIxYrgIhCxiL-23">
          <mxGeometry width="50" height="50" relative="1" as="geometry">
            <mxPoint x="-20" y="310" as="sourcePoint" />
            <mxPoint x="30" y="260" as="targetPoint" />
          </mxGeometry>
        </mxCell>
        <mxCell id="KIj0XrK9hIxYrgIhCxiL-33" value="[3] Apply changes to infrastructure&lt;br&gt;&lt;font face=&quot;Courier New&quot;&gt;terraform apply&lt;/font&gt;" style="edgeLabel;html=1;align=center;verticalAlign=middle;resizable=0;points=[];" vertex="1" connectable="0" parent="KIj0XrK9hIxYrgIhCxiL-32">
          <mxGeometry x="-0.2162" y="1" relative="1" as="geometry">
            <mxPoint x="22" y="-3" as="offset" />
          </mxGeometry>
        </mxCell>
      </root>
    </mxGraphModel>
  </diagram>
</mxfile>
